<svg width="31" height="32" viewBox="0 0 31 32" fill="none" xmlns="http://www.w3.org/2000/svg">
<g clip-path="url(#clip0_997_8971)">
<path d="M26.1996 25.4752C26.6765 25.9493 26.6765 26.7186 26.1996 27.1927C25.7255 27.6668 24.9562 27.6668 24.4821 27.1927L16.5816 19.3007V31.5702H30.702V17.552H18.2707L26.1996 25.4752ZM16.5816 0.868164V15.1248H30.702V0.868164H16.5816ZM26.2734 7.0994L20.8938 12.479C20.4197 12.9531 19.6532 12.9531 19.1792 12.479C18.7051 12.0049 18.7051 11.2356 19.1792 10.7615L24.5559 5.38475C25.03 4.91066 25.7993 4.91066 26.2734 5.38475C26.509 5.62037 26.6283 5.93264 26.6283 6.24208C26.6283 6.55151 26.509 6.86378 26.2734 7.0994ZM0 31.5702H14.1516V17.552H0V31.5702ZM4.47116 25.4695L9.84791 20.0927C10.322 19.6187 11.0913 19.6187 11.5654 20.0927C11.8039 20.3312 11.9203 20.6406 11.9203 20.9501C11.9203 21.2595 11.8039 21.5689 11.5654 21.8074L6.18866 27.187C5.71457 27.6611 4.94525 27.6611 4.47116 27.187C3.99708 26.7129 3.99708 25.9436 4.47116 25.4695ZM0 15.1248H12.4L4.46832 7.19876C3.9914 6.72468 3.9914 5.95819 4.46832 5.48411C4.70679 5.24565 5.01622 5.12925 5.32565 5.12925C5.63509 5.12925 5.9502 5.24565 6.18582 5.48411L14.1516 13.4414V0.868164H0V15.1248Z" fill="black"/>
</g>
<defs>
<clipPath id="clip0_997_8971">
<rect width="30.702" height="30.702" fill="white" transform="translate(0 0.868164)"/>
</clipPath>
</defs>
</svg>
